<svg width="155" height="31" xmlns="http://www.w3.org/2000/svg"><g fill="none" fill-rule="evenodd"><path d="M91.3 12.3l-10.9-11c-1.7-1.7-4.5-1.7-6.1 0l-10.9 11c-1.7 1.7-1.7 4.5 0 6.2l10.9 11c1.7 1.7 4.5 1.7 6.1 0l10.9-11c1.7-1.7 1.7-4.5 0-6.2z" fill="#52D70B"/><path fill="#FFF" d="M77.5 25.6l-3.7-3.7 2.3-2.3 1.6 1.6 5.5-5.5-5.6-5.6-1.3 1.3L74 9.2l3.5-3.5 9.9 9.9z"/><path d="M120.2 7.8h-2.6V23h9.4v-2.3h-6.8zm-8.7 0h2.6V23h-2.6zm20.8 0h-2.5V23h8.1l1.3-2.3h-6.9zm-24.2.1v-.1H97.7v2.3h6.5l-6.9 12.8v.1h11.1v-2.3h-7.1zm39.7-.4l-7 15.5h2.7l1.2-2.8 3.2-7.4 3.1 7.4 1.2 2.8h2.8zm-125.1 0c-4.4 0-7.6 3.3-7.6 7.9 0 4.5 3.2 7.9 7.6 7.9 4.4 0 7.7-3.3 7.7-7.9-.1-4.5-3.3-7.9-7.7-7.9zm0 13.4c-3 0-5.1-2.3-5.1-5.5s2.1-5.5 5.1-5.5c3 0 5.1 2.3 5.1 5.5-.1 3.2-2.2 5.5-5.1 5.5zm-15.1 0c-3 0-5-2.3-5-5.5s2-5.5 5-5.5c1.7 0 2.9.7 3.8 1.7L13 9.8c-1.4-1.5-3-2.3-5.4-2.3-4.4 0-7.6 3.4-7.6 7.9s3.2 7.9 7.6 7.9c2.3 0 4.1-.7 5.5-2.3l-1.6-1.9c-.9 1-2.2 1.8-3.9 1.8zM38.3 7.8h-4.7V23h4.7c5.2 0 8.2-2.8 8.2-7.6s-3.1-7.6-8.2-7.6zm0 12.8h-2V10.2h2c3.6 0 5.6 1.9 5.6 5.2 0 3.3-2 5.2-5.6 5.2zm14.1 0v-4.2h6v-2.3h-6v-3.9h6.9V7.8h-9.5V23h9.7v-2.4z" fill-rule="nonzero" fill="#FFF"/></g></svg>